<svg id="Layer_1" data-name="Layer 1" xmlns="http://www.w3.org/2000/svg" viewBox="0 0 764.87 764.87"><defs><style>.cls-1{fill:#1ac668;}.cls-2{fill:#fff;}</style></defs><title>logo</title><circle class="cls-1" cx="382.69" cy="379.36" r="375"/><path class="cls-2" d="M70.13,518.32l65.2-30.45,5.16,11.05-65.2,30.45Z"/><path class="cls-2" d="M106.38,581l30.19-45.71-.17-.25L94.71,564.11l-6.24-9,59.19-40.92,7.92,11.45L125,571.32l.17.25,42-29.15,6,8.69L114,592Z"/><path class="cls-2" d="M155.74,635.17l46.81-54.66,9.26,7.94L165,643.1Z"/><path class="cls-2" d="M212.65,676.26l6.61-32-5.79-3.58-16.13,26.12-10-6.2,37.82-61.22,17.46,10.79A27.57,27.57,0,0,1,249,615.5a16.31,16.31,0,0,1,3.55,6.55,17.53,17.53,0,0,1,.22,7.66,25.26,25.26,0,0,1-3.56,8.67,23.1,23.1,0,0,1-4.79,5.71,19.64,19.64,0,0,1-5.14,3.21,15.4,15.4,0,0,1-5,1.18A12.56,12.56,0,0,1,230,648l-6.43,35Zm26-43.66a13.53,13.53,0,0,0,2.05-5.06,8.37,8.37,0,0,0-2.17-7.32,13.71,13.71,0,0,0-2.84-2.35l-5.88-3.64-11.65,18.85,5.88,3.64a10.22,10.22,0,0,0,7.74,1.49Q235.72,637.36,238.66,632.6Z"/><path class="cls-2" d="M244.93,692.45l27.84-66.36L284,630.81l-27.84,66.36Z"/><path class="cls-2" d="M324.33,657.56a12.41,12.41,0,0,0-8.46-7.1,10.22,10.22,0,0,0-3.39-.29,8.19,8.19,0,0,0-3.29,1,8.47,8.47,0,0,0-2.81,2.53,12.56,12.56,0,0,0-1.87,4.24,9.06,9.06,0,0,0,.9,7.53,32.24,32.24,0,0,0,5.82,6.37q2.22,1.93,4.46,4.29a24.38,24.38,0,0,1,3.78,5.28A19.35,19.35,0,0,1,321,696a24.41,24.41,0,0,1-3.94,8.64,20.71,20.71,0,0,1-6,5.53,18.17,18.17,0,0,1-7.4,2.46,22.1,22.1,0,0,1-8-.59,26.22,26.22,0,0,1-10.15-5,23.29,23.29,0,0,1-6.41-7.73l8.62-7A17,17,0,0,0,292,698a15.19,15.19,0,0,0,6.14,3.26,8.53,8.53,0,0,0,6.86-1c2.08-1.29,3.52-3.47,4.31-6.56a9.51,9.51,0,0,0-1.11-7.94A34.41,34.41,0,0,0,302,678.9a47,47,0,0,1-4.58-4.43,21.42,21.42,0,0,1-3.41-5.13,18.66,18.66,0,0,1-1.66-6.2,22.32,22.32,0,0,1,.78-7.72,23.42,23.42,0,0,1,4.11-8.86,19.58,19.58,0,0,1,6.18-5.29,19,19,0,0,1,7.32-2.16,22.44,22.44,0,0,1,7.51.62,25.43,25.43,0,0,1,9.05,4.16,18.73,18.73,0,0,1,5.74,6.88Z"/><path class="cls-2" d="M375.74,721.43l1.64-31.88-21.52-1.1-1.64,31.87-12.08-.62,3.7-71.87,12.08.62-1.5,29.13,21.52,1.11,1.5-29.13,12.07.62-3.69,71.87Z"/><path class="cls-2" d="M480,707.45l-32.85-43.83-.29.08,13.3,49-10.61,2.83L431,646.05l13.45-3.59,32.73,44.18.29-.08-13.28-49.37,10.21-2.72L492.94,704Z"/><path class="cls-2" d="M549,678.6l-10.07-12-16.86,8.56,3.65,15.25L514.83,696l-16.64-72.26,13.86-7,48.27,56.19Zm-38.71-48.16-.37.18L519.09,666l14.14-7.18Z"/><path class="cls-2" d="M618.51,627.9l-35.64-42.28-.23.2,24.8,51.48-7.29,6.19-46.56-33-.23.2,35.95,42-8.44,7.17L534.28,605l12.47-10.6,44.62,31.18.31-.26L567.9,576.47,581,565.35l46.59,54.85Z"/><path class="cls-2" d="M647.4,596.61l-57.5-43.27,19.38-25.74,8.6,6.48-12.34,16.4L620.81,562l11.43-15.18,8,6L628.77,568l17,12.78,13-17.22,8.69,6.54Z"/><path class="cls-2" d="M641.84,496.74a12.39,12.39,0,0,0-8.78,6.71,10,10,0,0,0-1,3.24,8.18,8.18,0,0,0,.25,3.43,8.29,8.29,0,0,0,1.86,3.29,12.27,12.27,0,0,0,3.72,2.76,9.05,9.05,0,0,0,7.54.76,31.76,31.76,0,0,0,7.49-4.28,61.75,61.75,0,0,1,5.17-3.41,24,24,0,0,1,6-2.55,19.52,19.52,0,0,1,14.53,1.71,24.38,24.38,0,0,1,7.57,5.74,20.73,20.73,0,0,1,4.08,7.1A18.32,18.32,0,0,1,691,529a22.11,22.11,0,0,1-2.33,7.71,26.24,26.24,0,0,1-7.12,8.81,23.3,23.3,0,0,1-8.95,4.56l-5-10a16.66,16.66,0,0,0,6.54-3,15.06,15.06,0,0,0,4.52-5.28,8.52,8.52,0,0,0,.56-6.91c-.8-2.31-2.62-4.18-5.46-5.63a9.46,9.46,0,0,0-8-.66,35.2,35.2,0,0,0-8,4.57,45.59,45.59,0,0,1-5.32,3.51,21.24,21.24,0,0,1-5.75,2.2,18.43,18.43,0,0,1-6.41.27,22.51,22.51,0,0,1-7.37-2.45,23.58,23.58,0,0,1-7.74-5.94,19.6,19.6,0,0,1-3.81-7.19,18.89,18.89,0,0,1-.51-7.62,22.59,22.59,0,0,1,2.24-7.19,25.64,25.64,0,0,1,6-7.93,18.86,18.86,0,0,1,8-4.09Z"/><path class="cls-2" d="M113.45,355.43,77.7,373.14v.3l34.93,1.49-.52,12.19-71.9-3.06.52-12.19L71.9,373.2v-.31l-30.4-19.6.59-13.71,32.2,22.53,39.75-20.79Z"/><path class="cls-2" d="M116.07,333.76,45.89,317.87,53,286.45l10.51,2.37-4.53,20,18.64,4.22,4.19-18.54,9.72,2.2-4.2,18.54L108.05,320l4.76-21,10.6,2.41Z"/><path class="cls-2" d="M127.08,290.7,60.49,263.43l12.2-29.81,10,4.08-7.78,19,17.69,7.24,7.2-17.59,9.22,3.77-7.2,17.59,19.66,8.05,8.16-19.94,10.06,4.12Z"/><path class="cls-2" d="M123.32,189.18a25.46,25.46,0,0,1,7.23,6.54,20.62,20.62,0,0,1,3.45,7.39,17.37,17.37,0,0,1,.08,7.49,20.87,20.87,0,0,1-2.78,6.86l-4.54,7.2,24.4,15.42-6.41,10.14L83.92,211.77,94.53,195a26.46,26.46,0,0,1,4.65-5.45,17,17,0,0,1,6.46-3.66,19.05,19.05,0,0,1,8.09-.52A24.2,24.2,0,0,1,123.32,189.18Zm-6,9.79q-4.87-3.08-8.57-2.16a9.7,9.7,0,0,0-6,4.52l-3.69,5.84,19.25,12.16,3.69-5.84a9.07,9.07,0,0,0,1.22-7.52Q122.2,202.06,117.32,199Z"/><path class="cls-2" d="M157.1,136.06l42.72,44.38-8.64,8.31-42.72-44.37-9.74,9.38-7.19-7.47,28.12-27.07,7.19,7.47Z"/><path class="cls-2" d="M242.73,148l-17.63-26.6-18,11.91,17.64,26.6-10.08,6.68-39.77-60L185,99.89l16.12,24.31,18-11.91L203,88l10.08-6.69,39.76,60Z"/><path class="cls-2" d="M265.45,135.39,237.81,69l29.75-12.38,4.14,9.95-19,7.89,7.34,17.64,17.55-7.3,3.83,9.2-17.55,7.3,8.16,19.61L292,112.59l4.18,10Z"/><path class="cls-2" d="M358.08,109.91l-5.61-14.62-18.73,2.59-1.54,15.61-12.08,1.67L328,41.43l15.4-2.14,27.29,68.87ZM337.2,51.74l-.4.06-2.86,36.41L349.65,86Z"/><path class="cls-2" d="M420.26,59.76a25.42,25.42,0,0,1-2.11,9.52,20.55,20.55,0,0,1-4.72,6.65A17.39,17.39,0,0,1,407,79.7a20.7,20.7,0,0,1-7.35,1l-8.5-.4-1.34,28.84-12-.56,3.35-71.88L401,37.6A26.57,26.57,0,0,1,408,39a16.8,16.8,0,0,1,6.36,3.8,19,19,0,0,1,4.46,6.77A24.3,24.3,0,0,1,420.26,59.76Zm-11.48-.38q.27-5.76-2.35-8.51a9.73,9.73,0,0,0-6.88-3l-6.91-.32-1.05,22.75,6.9.32A9.12,9.12,0,0,0,405.63,68Q408.51,65.15,408.78,59.38Z"/><path class="cls-2" d="M483,88.62a62.26,62.26,0,0,1-5.51,14.59,38,38,0,0,1-7.89,10.33,24.43,24.43,0,0,1-9.82,5.49,22.82,22.82,0,0,1-21.05-5.3,24.37,24.37,0,0,1-6-9.48,37.82,37.82,0,0,1-2.06-12.83A62.52,62.52,0,0,1,432.78,76a63.46,63.46,0,0,1,5.45-14.56,37.43,37.43,0,0,1,7.83-10.29,23.93,23.93,0,0,1,9.81-5.44,22.12,22.12,0,0,1,11.25.06A21.81,21.81,0,0,1,477,51,24,24,0,0,1,483,60.41a38,38,0,0,1,2.07,12.79A61.81,61.81,0,0,1,483,88.62Zm-12.22-3.08a57.38,57.38,0,0,0,1.68-10.22,32.71,32.71,0,0,0-.42-8.7,15.88,15.88,0,0,0-2.69-6.39,8.82,8.82,0,0,0-5.07-3.37,9,9,0,0,0-6.17.54,15.79,15.79,0,0,0-5.39,4.35,31.34,31.34,0,0,0-4.45,7.48A60.86,60.86,0,0,0,445,79a62.47,62.47,0,0,0-1.73,10.21,32.37,32.37,0,0,0,.36,8.73,15.73,15.73,0,0,0,2.68,6.44,9.42,9.42,0,0,0,11.33,2.86,15.77,15.77,0,0,0,5.41-4.4,32.35,32.35,0,0,0,4.46-7.53A61.86,61.86,0,0,0,470.82,85.54Z"/><path class="cls-2" d="M534.18,87.69a12.45,12.45,0,0,0-7-8.57,10.24,10.24,0,0,0-3.28-.92,8.17,8.17,0,0,0-3.42.35,8.34,8.34,0,0,0-3.23,2,12.45,12.45,0,0,0-2.64,3.81,9,9,0,0,0-.53,7.56,32.05,32.05,0,0,0,4.51,7.36,60.54,60.54,0,0,1,3.57,5.05,24.31,24.31,0,0,1,2.73,5.89,19.4,19.4,0,0,1-1.26,14.58,24.33,24.33,0,0,1-5.5,7.75,20.82,20.82,0,0,1-7,4.29,18.38,18.38,0,0,1-7.73,1,22.29,22.29,0,0,1-7.78-2.09,26.26,26.26,0,0,1-9-6.84,23.3,23.3,0,0,1-4.84-8.8l9.79-5.27a16.83,16.83,0,0,0,3.19,6.45,15.14,15.14,0,0,0,5.42,4.35,8.51,8.51,0,0,0,6.92.34c2.28-.87,4.11-2.74,5.46-5.63a9.47,9.47,0,0,0,.41-8,34.6,34.6,0,0,0-4.82-7.89,45.52,45.52,0,0,1-3.66-5.21,21,21,0,0,1-2.39-5.68,18.73,18.73,0,0,1-.46-6.4,22.25,22.25,0,0,1,2.21-7.43,23.63,23.63,0,0,1,5.71-7.93,19.52,19.52,0,0,1,7.07-4,18.67,18.67,0,0,1,7.6-.74,22.33,22.33,0,0,1,7.25,2,25.56,25.56,0,0,1,8.11,5.79A18.78,18.78,0,0,1,544,82.65Z"/><path class="cls-2" d="M573.9,108l-34.6,51-9.92-6.74,34.59-51-11.18-7.59,5.82-8.58L590.91,107l-5.83,8.58Z"/><path class="cls-2" d="M577.6,191.73l13.16-29.9-4.92-4.71-21.23,22.17-8.52-8.16,49.78-52,14.83,14.2a27.53,27.53,0,0,1,5.13,6.54,16.42,16.42,0,0,1,2.1,7.15,17.66,17.66,0,0,1-1.38,7.54,25.3,25.3,0,0,1-5.3,7.73,23.24,23.24,0,0,1-5.87,4.59,20.25,20.25,0,0,1-5.7,2.06,15.24,15.24,0,0,1-5.11.11,12.33,12.33,0,0,1-4.12-1.35l-13.6,32.86Zm34.57-37.26a13.71,13.71,0,0,0,3.06-4.53,8.71,8.71,0,0,0,.6-4.07,9,9,0,0,0-1.19-3.53,13.63,13.63,0,0,0-2.29-2.9l-5-4.78-15.32,16,5,4.78a10.18,10.18,0,0,0,7.25,3.08Q608.31,158.51,612.17,154.47Z"/><path class="cls-2" d="M649.66,226.67A62.33,62.33,0,0,1,635.9,234a37.72,37.72,0,0,1-12.74,2.57,24.37,24.37,0,0,1-11-2.33,22.86,22.86,0,0,1-12.34-17.86,24.43,24.43,0,0,1,1.73-11.08,38.17,38.17,0,0,1,6.9-11A63.22,63.22,0,0,1,620.18,184a64.23,64.23,0,0,1,13.69-7.36,37.43,37.43,0,0,1,12.68-2.58,23.89,23.89,0,0,1,11,2.36,22.09,22.09,0,0,1,8.43,7.46,21.85,21.85,0,0,1,3.94,10.44,23.87,23.87,0,0,1-1.66,11.09,38.3,38.3,0,0,1-6.86,11A62.19,62.19,0,0,1,649.66,226.67Zm-7.17-10.36a59.62,59.62,0,0,0,8-6.58,32.63,32.63,0,0,0,5.41-6.83,15.89,15.89,0,0,0,2.19-6.58,8.78,8.78,0,0,0-1.6-5.88,8.91,8.91,0,0,0-5-3.65,15.73,15.73,0,0,0-6.93-.28,31.49,31.49,0,0,0-8.27,2.69,62.55,62.55,0,0,0-8.95,5.2,61.11,61.11,0,0,0-8,6.54,31.79,31.79,0,0,0-5.48,6.81,15.63,15.63,0,0,0-2.23,6.61,9.41,9.41,0,0,0,6.64,9.61,15.62,15.62,0,0,0,7,.25,31.9,31.9,0,0,0,8.31-2.72A61.53,61.53,0,0,0,642.49,216.31Z"/><path class="cls-2" d="M686.73,273.67a25.49,25.49,0,0,1-9.49,2.24,20.71,20.71,0,0,1-8-1.35,17.21,17.21,0,0,1-6.2-4.18,20.66,20.66,0,0,1-4.09-6.18l-3.34-7.82L629,267.73l-4.72-11,66.16-28.3,7.82,18.27a26.73,26.73,0,0,1,1.86,6.93,16.86,16.86,0,0,1-.66,7.39,19.07,19.07,0,0,1-4.15,7A24.34,24.34,0,0,1,686.73,273.67Zm-4.66-10.5q5.31-2.26,6.65-5.83a9.72,9.72,0,0,0-.34-7.48l-2.72-6.35-20.93,9,2.71,6.35a9.13,9.13,0,0,0,5.5,5.28Q676.77,265.44,682.07,263.17Z"/><path class="cls-2" d="M649.62,335.25l31.27-6.4-4.32-21.11-31.27,6.41-2.43-11.85,70.5-14.44,2.43,11.84-28.58,5.86,4.32,21.11,28.58-5.86,2.43,11.85-70.5,14.44Z"/><path class="cls-2" d="M652.7,361.24l71.95-1.17.53,32.22-10.78.17-.33-20.53-19.1.31.3,19-10,.16-.3-19-21.24.35.34,21.54-10.87.18Z"/><path d="M83.08,467.55A40,40,0,0,1,79.8,452a1.22,1.22,0,0,1,2.25-.69l6.41,9.76a7.07,7.07,0,0,0,11.42-8.33,7.68,7.68,0,0,0-.93-1.05,7.07,7.07,0,1,0-1.87-14,7.3,7.3,0,0,0-1.38.33l-12,4.79a1.22,1.22,0,0,1-1.39-1.92l8.43-10.31a7.07,7.07,0,1,0-11.37-8.41,8.66,8.66,0,0,0-.72,1.2,7.07,7.07,0,1,0-12.09,7.21l8.7,10.65a1.22,1.22,0,0,1,.18,1.28,1.24,1.24,0,0,1-1.63.6l-11.36-5.18a7.07,7.07,0,0,0-5.22,13.14,7.74,7.74,0,0,0,1.35.39,7.06,7.06,0,1,0,9.05,10.85,6.19,6.19,0,0,0,1-1L76.11,451a1.22,1.22,0,0,1,2.21.73l-.17,21.8Z"/><path d="M692.34,467.55A39.8,39.8,0,0,1,689.06,452a1.24,1.24,0,0,1,.54-1,1.23,1.23,0,0,1,1.7.36l6.41,9.76a7.07,7.07,0,0,0,11.43-8.33,7.76,7.76,0,0,0-.94-1.05,7.07,7.07,0,1,0-1.87-14A7.2,7.2,0,0,0,705,438l-12,4.79a1.23,1.23,0,0,1-1.4-1.92L700,430.59a7.07,7.07,0,1,0-11.37-8.41,8.66,8.66,0,0,0-.72,1.2,7.07,7.07,0,0,0-12.8,6,7.15,7.15,0,0,0,.72,1.21l8.69,10.65a1.22,1.22,0,0,1,.18,1.28,1.24,1.24,0,0,1-1.63.6l-11.35-5.18a7.07,7.07,0,1,0-5.23,13.14,7.74,7.74,0,0,0,1.35.39,7.06,7.06,0,1,0,9,10.85,6.19,6.19,0,0,0,1-1L685.36,451a1.23,1.23,0,0,1,1-.51,1.24,1.24,0,0,1,1.22,1.24l-.18,21.8Z"/><path d="M409.41,380.58l-54.31,8.79q-38.18,0-68.25-25.66t-30.07-74.86q0-49.16,32.28-82.91t90.25-33.76q57.94,0,95.39,44T512.14,330q0,69.72-53.58,138.7T305.2,583.11l-10.28-24.94q138-76.3,138-154.11Q432.89,380.57,409.41,380.58Z"/></svg>